# xmcd CD database file generated by OrangeCD 6.0
#
# Track frame offsets:
#	150
#	17691
#	37744
#	57173
#	77069
#	94181
#	109965
#	130261
#	148967
#	165974
#	179168
#	200970
#
# Disc length: 2924 seconds
#
# Revision: 0
# Processed by: cddbd v1.5.2PL0 Copyright (c) Steve Scherf et al.
# Submitted via: OrangeCD 6.0
#
DISCID=a80b6a0c
DTITLE=Steve Reynolds - Exile
DYEAR=2006
DGENRE=Country Rock
TTITLE0=Painter And Son
TTITLE1=Even Now
TTITLE2=Dear Rose
TTITLE3=That Old Love
TTITLE4=Miner's Lamp
TTITLE5=Forsaken
TTITLE6=Only Son
TTITLE7=Satellite
TTITLE8=Market Fool
TTITLE9=Last Flat
TTITLE10=Static
TTITLE11=Exile
EXTD=
EXTT0=
EXTT1=
EXTT2=
EXTT3=
EXTT4=
EXTT5=
EXTT6=
EXTT7=
EXTT8=
EXTT9=
EXTT10=
EXTT11=
PLAYORDER=
